<?xml version="1.0" encoding="UTF-8"?><svg id="Layer_2" data-name="Layer 2" xmlns="http://www.w3.org/2000/svg" viewBox="0 0 447.3974 414.2141"><defs><style>.cls-1 {
        fill: #f79c85;
      }

      .cls-1, .cls-2, .cls-3, .cls-4 {
        fill-rule: evenodd;
      }

      .cls-2 {
        fill: #fde3cc;
      }

      .cls-3 {
        fill: #fff;
      }</style></defs><g id="katman_1" data-name="katman 1"><g><path class="cls-4" d="M147.2285,124.0718c47.6025-25.5725,100.7123-27.5901,148.4565-1.1539-42.6308-92.2292,60.8517-147.5437,124.791-81.8993,62.2747,63.9319,8.019,169.1381-76.2049,137.5568,18.7497,30.9164,29.8091,77.4644,15.1146,111.9762,4.3988,32.6259-35.9024,91.253-99.9717,100.114-13.9047,15.4476-47.2029,45.9608-90.5626-3.5388-60.2931-7.3678-111.6612-81.2015-89.8685-108.466-10.4045-37.4174,8.6528-90.0885,24.6379-110.9472C43.0233,193.874-28.761,122.8608,11.8913,44.993,61.55-50.1268,196.7386,19.5871,147.2285,124.0718"/><path class="cls-3" d="M209.1358,226.5886c-3.9638-29.7805-29.2499-.4002-14.825,21.9623-.8737,.4754-2.424,.5524-3.5214,1.1539-20.2709-27.551-9.2543-88.9657,5.9566-89.1993,15.214-.2374,15.5676,59.6916,12.3898,66.0831m42.0641-65.202c-13.2007-.2939-22.1574,47.7162-20.3989,66.9959,3.2561-22.7875,27.1055-15.7552,13.9085,19.1915,1.0793,.2622,2.2718,.8457,3.2412,1.0551,23.924-31.3129,15.0338-86.9841,3.2492-87.2426"/><path class="cls-2" d="M297.2768,255.7102c40.3484-41.5856,20.6294-115.4373-17.0645-134.2995-33.0291-16.5276-49.8817,2.5999-55.3462,15.6173-2.6751-5.7441-13.7948-31.7907-43.5181-23.0497-51.1419,15.0413-85.3778,86.0719-42.6699,143.0418-39.0062-8.2097-67.8385,19.6451-55.445,53.6579,14.3435,35.7757,44.8784,59.9184,82.607,72.4324-2.1127-1.9785-6.7669-7.4535-6.4233-10.4045,34.523,32.9477,57.257,62.4487,113.5085-1.3807,1.4298,2.7496-7.3678,12.181-9.6936,14.5908,49.8613-9.8943,90.8429-55.8694,90.5943-88.1094-.046-27.8194-30.1589-49.3405-56.5492-42.0964m-109.308-4.6393c-22.2208-29.4512-11.7529-91.9775,9.3394-93.5453,19.1032-1.4198,20.8941,63.7933,11.6609,87.982,3.6668-.768,15.0692-1.3267,19.3549-.6257-4.9866-34.4701,4.2148-88.3828,23.205-86.7548,16.7109,1.4298,24.8474,55.6327-.6618,91.6668,4.9015,3.0392,11.7846,6.6035,15.104,12.127-33.5175-21.8989-73.0234-11.1961-95.9662,.8469,2.2824-4.735,11.6323-8.101,17.9636-11.6969m31.0724,61.557c-58.683,3.348-59.5188-54.4048-1.2881-54.9883,57.8336-.581,53.0949,52.033,1.2881,54.9883m101.5754-21.2831c-9.5445,14.7641-21.7472,26.4785-34.8162,37.2297-19.6451,26.8395-34.1619,66.9214-67.7217,70.5633-38.6564,4.1975-60.5627-55.6538-70.7336-68.7408-11.9157-10.1534-22.0654-21.9908-29.161-36.4872-6.1188,5.2805-8.444,10.0758-12.9348,14.8468-1.2564-10.4157,15.8895-28.3544,32.2431-27.3565-4.894,3.4642-11.7597,5.6235-16.6333,9.8024,24.9362,59.4697,132.7367,87.1581,197.8604-1.1918-6.6569-5.2874-13.5723-6.3071-21.1029-8.7342,15.0021-4.0309,37.2545,10.0683,36.8196,23.1727-3.3225-3.6805-7.7151-9.9658-13.8196-13.1044"/><path class="cls-1" d="M218.5528,370.8227c.0565,.1591-8.3558,7.1627-9.0455,12.7968,19.9241-21.5416,41.5117-12.4321,42.9663-11.8486-14.3111,22.2817-47.0575,36.6748-71.0095,3.8607,2.0245-5.4141,21.2446-18.7099,37.0887-4.8089"/></g></g></svg>